<svg width="16" height="15" viewBox="0 0 16 15" fill="none" xmlns="http://www.w3.org/2000/svg">
<path d="M14.871 14.2883L14.8732 14.2905C14.9199 14.3365 14.9199 14.4145 14.8732 14.4606L14.871 14.4628C14.8213 14.5124 14.743 14.5124 14.6934 14.4628L14.6932 14.4626L11.0871 10.8596L10.7668 10.5395L10.4166 10.8267C9.41306 11.6498 8.13139 12.1429 6.72963 12.1429C3.51307 12.1429 0.908203 9.53524 0.908203 6.32143C0.908203 3.10762 3.51307 0.5 6.72963 0.5C9.94328 0.5 12.5511 3.10777 12.5511 6.32143C12.5511 7.72274 12.0553 9.00756 11.2318 10.0115L10.9445 10.3618L11.2649 10.6821L14.871 14.2882L14.871 14.2883ZM1.16331 6.32143C1.16331 9.3896 3.65879 11.8847 6.72963 11.8847C9.79722 11.8847 12.296 9.3898 12.296 6.32143C12.296 3.25345 9.79761 0.755102 6.72963 0.755102C3.65839 0.755102 1.16331 3.25365 1.16331 6.32143Z" fill="#252F54" stroke="#FF8036"/>
</svg>
